<svg width="512" height="512" viewBox="0 0 512 512" fill="none" xmlns="http://www.w3.org/2000/svg">
  <rect width="512" height="512" rx="128" fill="#3b82f6"/>
  <rect x="64" y="64" width="384" height="384" rx="64" fill="white"/>
  
  <!-- Medical Cross -->
  <rect x="226" y="128" width="60" height="256" rx="30" fill="#3b82f6"/>
  <rect x="128" y="226" width="256" height="60" rx="30" fill="#3b82f6"/>
  
  <!-- Document Icon -->
  <rect x="160" y="320" width="192" height="96" rx="8" fill="#e5e7eb"/>
  <rect x="176" y="336" width="64" height="8" rx="4" fill="#9ca3af"/>
  <rect x="176" y="352" width="96" height="8" rx="4" fill="#9ca3af"/>
  <rect x="176" y="368" width="80" height="8" rx="4" fill="#9ca3af"/>
  
  <!-- Insurance Shield -->
  <path d="M320 160L352 176V224C352 248 336 272 320 288L304 304L288 288C272 272 256 248 256 224V176L288 160H320Z" fill="#10b981"/>
  <path d="M304 192L296 200L288 208L304 224L328 200L320 192L304 192Z" fill="white"/>
</svg>
